<svg width="50" height="51" viewBox="0 0 50 51" fill="none" xmlns="http://www.w3.org/2000/svg">
<path d="M0 25.5244C0 11.7173 11.1929 0.524414 25 0.524414C38.8071 0.524414 50 11.7173 50 25.5244C50 39.3315 38.8071 50.5244 25 50.5244C11.1929 50.5244 0 39.3315 0 25.5244Z" fill="#ECECEC"/>
<path d="M19.872 23.1724C19.52 23.8551 19.344 24.7564 19.344 25.8764C19.344 26.9964 19.52 27.8977 19.872 28.5804C20.224 29.2631 20.7733 29.6044 21.52 29.6044C22.2667 29.6044 22.816 29.2631 23.168 28.5804C23.52 27.8977 23.696 26.9964 23.696 25.8764C23.696 24.7564 23.52 23.8551 23.168 23.1724C22.816 22.4897 22.2667 22.1484 21.52 22.1484C20.7733 22.1484 20.224 22.4897 19.872 23.1724ZM21.52 31.6524C19.9733 31.6524 18.816 31.1297 18.048 30.0844C17.28 29.0284 16.896 27.6257 16.896 25.8764C16.896 24.1164 17.28 22.7137 18.048 21.6684C18.816 20.6124 19.9733 20.0844 21.52 20.0844C23.0667 20.0844 24.224 20.6124 24.992 21.6684C25.76 22.7137 26.144 24.1164 26.144 25.8764C26.144 27.6257 25.76 29.0284 24.992 30.0844C24.224 31.1297 23.0667 31.6524 21.52 31.6524ZM27.6429 20.3404H32.1709V31.5244H29.7709V22.4684H27.6429V20.3404Z" fill="#E74040"/>
</svg>
